<mxfile host="app.diagrams.net" modified="2024-05-25T14:11:39.131Z" agent="Mozilla/5.0 (Macintosh; Intel Mac OS X 10_15_7) AppleWebKit/605.1.15 (KHTML, like Gecko) Version/17.1.2 Safari/605.1.15" version="24.4.8" etag="6_91iF4aOifhraZYDHQA" type="github">
  <diagram name="第 1 页" id="vuI8Hxuc5qKSNJ60_7HF">
    <mxGraphModel>
      <root>
        <mxCell id="0" />
        <mxCell id="1" parent="0" />
      </root>
    </mxGraphModel>
  </diagram>
</mxfile>
